<svg xmlns="http://www.w3.org/2000/svg" viewBox="0 0 1024 1024"><path d="M0 0h1024v1024H0V0z"/><path d="M254.23046875 418.8828125C272.73887493 433.03169283 284.93090051 451.82058947 289 475c1.58708503 25.85024858-2.11007998 49.61256341-19.46630859 69.69677734-15.00567214 16.71247845-35.09611107 26.84416765-57.60400391 28.53369141-13.63985805.35894363-26.2086021-2.43290914-38.66015625-7.828125C170.21424792 564.09189367 167.15801003 563.03060724 164 562c-2.86590749 2.84087268-5.72827697 5.68526136-8.58764648 8.53271484-.96977625.96479975-1.94045422 1.92869411-2.91210938 2.89160157-5.14150151 5.09642388-10.16465091 10.2193223-14.87548828 15.71728515-2.80484042 3.20818111-5.80168149 6.219541-8.81225586 9.23339844-.60263672.61488281-1.20527344 1.22976563-1.82617187 1.86328125-.58716797.58910156-1.17433594 1.17820312-1.77929688 1.78515625-.52102295.52513184-1.0420459 1.05026367-1.57885742 1.59130859-4.17924882 3.55571418-7.90841679 3.76418534-13.22192383 3.63134766C107.17154671 606.91527182 105.41207652 606.19279684 103 604c-2.87523275-4.3624221-3.89218414-7.825332-3-13 1.56989964-2.23135069 3.27561488-4.1495323 5.17578125-6.10546875 1.88716494-1.86904946 1.88716494-1.86904946 3.4296875-4.1328125C109.06566406 580.18035156 109.52585937 579.59898437 110 579h2c.26819046-.59514404.53638092-1.19028809.81269836-1.8034668 1.19805945-2.21643538 2.37857309-3.60182589 4.18412781-5.34106445.60369919-.58740967 1.20739838-1.17481934 1.82939148-1.7800293.64902786-.62302002 1.29805573-1.24604004 1.9667511-1.88793945 1.3656537-1.33550885 2.73087528-2.67145968 4.09570312-4.0078125 2.15470206-2.09875817 4.31304536-4.19338418 6.47924805-6.28027344 2.09024056-2.01796719 4.16473438-4.0510728 6.23754883-6.08691406.65510056-.62302002 1.31020111-1.24604004 1.9851532-1.88793945.5942427-.58740967 1.18848541-1.17481934 1.80073547-1.7800293.79370247-.76799927.79370247-.76799927 1.60343933-1.55151367 1.22841536-1.57532534 1.22841536-1.57532534.75466919-3.66357422-.93998832-2.4199288-2.27773374-4.13161641-3.87446594-6.17944336-13.02989808-18.17751214-17.35279477-41.25848375-13.75-63.125 2.71974459-14.92093726 9.54533333-27.13049999 17.875-39.625h2c.27199219-.59425781.54398438-1.18851562.82421875-1.80078125C153.9542825 418.8629201 172.3160433 411.03097397 185.875 406.75c23.22610626-6.96212522 48.69686987-1.81505551 68.35546875 12.1328125z" fill="#010101"/><path d="M254.23046875 418.8828125C272.73887493 433.03169283 284.93090051 451.82058947 289 475c1.58708503 25.85024858-2.11007998 49.61256341-19.46630859 69.69677734-15.00567214 16.71247845-35.09611107 26.84416765-57.60400391 28.53369141-13.63985805.35894363-26.2086021-2.43290914-38.66015625-7.828125C170.21424792 564.09189367 167.15801003 563.03060724 164 562c-2.86590749 2.84087268-5.72827697 5.68526136-8.58764648 8.53271484-.96977625.96479975-1.94045422 1.92869411-2.91210938 2.89160157-5.14150151 5.09642388-10.16465091 10.2193223-14.87548828 15.71728515-2.80484042 3.20818111-5.80168149 6.219541-8.81225586 9.23339844-.60263672.61488281-1.20527344 1.22976563-1.82617187 1.86328125-.58716797.58910156-1.17433594 1.17820312-1.77929688 1.78515625-.52102295.52513184-1.0420459 1.05026367-1.57885742 1.59130859-4.17924882 3.55571418-7.90841679 3.76418534-13.22192383 3.63134766C107.17154671 606.91527182 105.41207652 606.19279684 103 604c-2.87523275-4.3624221-3.89218414-7.825332-3-13 1.56989964-2.23135069 3.27561488-4.1495323 5.17578125-6.10546875 1.88716494-1.86904946 1.88716494-1.86904946 3.4296875-4.1328125C109.06566406 580.18035156 109.52585937 579.59898437 110 579h2c.26819046-.59514404.53638092-1.19028809.81269836-1.8034668 1.19805945-2.21643538 2.37857309-3.60182589 4.18412781-5.34106445.60369919-.58740967 1.20739838-1.17481934 1.82939148-1.7800293.64902786-.62302002 1.29805573-1.24604004 1.9667511-1.88793945 1.3656537-1.33550885 2.73087528-2.67145968 4.09570312-4.0078125 2.15470206-2.09875817 4.31304536-4.19338418 6.47924805-6.28027344 2.09024056-2.01796719 4.16473438-4.0510728 6.23754883-6.08691406.65510056-.62302002 1.31020111-1.24604004 1.9851532-1.88793945.5942427-.58740967 1.18848541-1.17481934 1.80073547-1.7800293.79370247-.76799927.79370247-.76799927 1.60343933-1.55151367 1.22841536-1.57532534 1.22841536-1.57532534.75466919-3.66357422-.93998832-2.4199288-2.27773374-4.13161641-3.87446594-6.17944336-13.02989808-18.17751214-17.35279477-41.25848375-13.75-63.125 2.71974459-14.92093726 9.54533333-27.13049999 17.875-39.625h2c.27199219-.59425781.54398438-1.18851562.82421875-1.80078125C153.9542825 418.8629201 172.3160433 411.03097397 185.875 406.75c23.22610626-6.96212522 48.69686987-1.81505551 68.35546875 12.1328125zm-92.90185547 26.54736328C147.26166926 462.05098615 144.74374872 478.81567332 146 500c.59126375 4.6457889 2.027413 8.75718713 4 13 .49757813 1.09183594.99515625 2.18367187 1.5078125 3.30859375C159.73253183 532.85366868 172.65747099 543.90505339 190 550c15.98459644 4.88222622 32.70025563 1.80980818 47.29980469-5.67602539C252.38628295 536.10624202 261.97123155 522.62365686 267.3125 506.5625c4.25195106-15.98386502 2.43571445-33.47916634-4.875-48.3125-3.88738403-6.54146095-9.09379211-11.89052896-14.4375-17.25-.58523437-.6084375-1.17046875-1.216875-1.7734375-1.84375-10.84792258-10.35233221-26.76683352-14.69690346-41.37451172-14.50366211-16.30227357.59015399-32.53992287 8.77875732-43.5234375 20.77758789z" fill="#2491a1"/><path d="M208.4260253906 444.5952148438c2.91257688 1.58958241 5.79806422 3.19570145 8.65209961 4.88916016.57087341.33807678 1.14174683.67615356 1.72991943 1.02447509 1.20448897.71441178 2.40794308 1.43057085 3.6104126 2.14837647 1.80968548 1.07973236 3.62303376 2.15308442 5.43701172 3.22558594 6.59068365 3.91511772 6.59068365 3.91511772 8.33096313 5.01342773 1.36433418.83035049 2.76771039 1.59705948 4.18646241 2.33056641 6.12443095 3.44167108 6.12443095 3.44167108 7.46755981 6.99945068.35175022 2.70304479.40798672 5.26717721.3548584 7.99249268.0129158 1.46415344.0129158 1.46415344.02609253 2.95788574.00610676 2.05754843-.01038023 4.11527299-.04806519 6.17248535-.04823597 3.14410819-.00045975 6.27666019.05712891 9.42041016-.00594763 2.00393169-.01747949 4.0078562-.03515625 6.01171875.01821808.93453003.03643616 1.86906005.0552063 2.83190918-.12517693 3.88781689-.24352344 6.39047397-3.08509827 9.20205688-2.32314749 1.57176467-4.67610422 2.89483558-7.16542053 4.18478394-1.21217492.73846079-2.41952885 1.48493389-3.62036133 2.24169922-1.15210951.69064159-2.30602745 1.37827474-3.46166992 2.06298828-.93219612.55326461-.93219612.55326461-1.88322449 1.1177063-1.29383033.76595179-2.58853671 1.53042569-3.88410949 2.29342651-1.98152491 1.17003858-3.95559385 2.35206413-5.92993165 3.53417969-1.26713703.74814341-2.53469989 1.49556618-3.80273437 2.2421875-.87819145.52954788-.87819145.52954788-1.77412415 1.0697937-3.26894507 1.90346812-4.73391906 2.4380188-8.6438446 2.4380188-2.43505859-1.14233399-2.43505859-1.14233399-5.1484375-2.74609375-1.00675781-.59103516-2.01351563-1.18207032-3.05078125-1.79101563-1.04800781-.6271289-2.09601563-1.25425781-3.17578125-1.90039062-1.00933594-.59232422-2.01867188-1.18464844-3.05859375-1.79492188-2.09526943-1.23835456-4.17367648-2.50560698-6.23583984-3.79833984-2.40926931-1.42451006-4.6120155-2.56607191-7.14941407-3.67675782-4.73790043-2.23951521-8.99300237-4.43629386-11.08868408-9.47409057-1.71361314-6.53251614-1.79171233-13.10288929-1.71746826-19.81838989-.00649567-1.01789612-.01299133-2.03579224-.01968384-3.0845337.09346423-17.43617493.09346423-17.43617493 5.27700806-23.56292724 6.12177883-5.83694558 14.03470998-9.0000734 21.85449219-11.8984375 4.5070019-1.86544151 8.23420748-4.43221053 12.13500976-7.3334961 2.37817383-1.12060546 2.37817383-1.12060546 4.80419922-.52539062z" fill="#735bbb"/><path d="M795.08203125 451.86328125c.79792969.00386719 1.59585938.00773437 2.41796875.01171875 1.19689453-.00580078 1.19689453-.00580078 2.41796875-.01171875C805.87339233 451.87339233 805.87339233 451.87339233 807 453c.10051875 2.79452271.13615894 5.56436355.12939453 8.359375.00262848 1.31454163.00262848 1.31454163.00531006 2.65563965.00441973 2.91168162.0014801 5.82330305-.00189209 8.73498535.000673 2.01399752.001643 4.02799495.00289917 6.04199219.00147714 4.22689586-.00067809 8.45377064-.00534058 12.68066406-.00569729 5.43114907-.00241837 10.86224874.00357247 16.293396.00360518 4.16054662.00246722 8.32108144-.00012779 12.48162841-.00066939 2.00317389.00015956 4.00634883.00247955 6.00952149.00252583 2.79450337-.00131308 5.58892556-.00690079 8.38342285.00202423.83640015.00404846 1.67280029.00613403 2.5345459C807.11426242 542.88573758 807.11426242 542.88573758 806 544c-2.53049402.07313567-5.03304837.09247527-7.5625.0625-1.06637695-.00676758-1.06637695-.00676758-2.15429687-.01367187C794.52209987 544.03700864 792.76103964 544.01907263 791 544l-1-6-2.0625 1.8125C780.37766988 545.44216073 773.32187214 546.21893719 764 545c-8.64381233-2.83107442-14.93519561-7.23737428-19.20703125-15.26953125-4.76435284-10.15160693-5.56571111-21.71653684-1.82421875-32.38671875 3.97957942-9.04449869 9.53903389-14.27239164 18.42578125-18.4765625 3.01465153-1.00337727 5.55428001-1.23835432 8.73046875-1.3046875 1.03382813-.03996094 2.06765625-.07992188 3.1328125-.12109375C778.64670036 478.24580183 783.15290125 480.58519793 788 483c-.00523682-.90355225-.01047363-1.80710449-.01586914-2.73803711-.01700772-3.34147778-.02956419-6.68290981-.0390625-10.02441406-.00503937-1.44824956-.01187089-2.896494-.02050781-4.34472656-.01208302-2.07756815-.01779266-4.15506924-.0222168-6.23266602-.00523682-1.25159912-.01047363-2.50319824-.01586914-3.79272461.20445877-5.1642328 2.60987449-3.99636485 7.19555664-4.00415039z" fill="#f1f0ee"/><path d="M337.49609375 453.76171875c.86271011-.00807175 1.72542023-.01614349 2.61427307-.02445984 1.83517943-.01386692 3.67038494-.02457734 5.50559998-.03242493 2.77891989-.01707219 5.55660588-.06091554 8.33520507-.10522461 12.92194967-.11510604 22.46234406.8509114 32.13085938 10.22851563 6.29070828 7.12349044 6.76612654 14.89370254 6.359375 24.06640625-.61621105 7.51983461-3.7621404 12.79876379-9.12890625 17.98046875C371.86113606 514.95047347 358.99288305 514 345 514v30h-17c-.02255001-11.58688749-.0409145-23.17376052-.05181217-34.76066494-.00522908-5.37967268-.01232718-10.75932964-.02362728-16.13899326-.010828-5.18709023-.0168372-10.37416529-.01943779-15.56126595-.00185441-1.98363865-.00547532-3.96727643-.01085282-5.95090866-.00720926-2.76825855-.00826093-5.53645357-.00779533-8.30471992-.00359528-.82862046-.00719055-1.65724091-.01089478-2.51097107.01477482-8.06347504 2.33231861-6.94654447 9.62051392-7.01075745z" fill="#eceae8"/><path d="M449.4296875 483.35546875C456.14996255 488.08502081 461.37412389 494.82059249 463 503c1.01273937 11.63415225.04493845 22.89060372-7.390625 32.4375-7.91109929 7.68067893-17.65964903 9.99698596-28.39575195 10.00073242C419.1137184 545.22647631 412.19023587 542.72499314 406 537.4375L404 535l-2.0625-1.6875c-6.83659743-8.15980983-6.8727534-18.16978694-6.16503906-28.31591797C396.25565939 500.75667119 397.65186088 497.51491632 400 494c.65355469-1.05574219.65355469-1.05574219 1.3203125-2.1328125 10.81797592-16.02006271 32.09799061-17.44411486 48.109375-8.51171875z" fill="#eeedeb"/><path d="M927.3125 484.625c6.028595 4.8773438 9.67160736 11.98643422 11.6875 19.375 1.15980399 11.45153832-.04945548 21.03409811-6.87109375 30.6328125-2.17543688 2.41892614-4.14561933 3.91243786-6.94140625 5.5546875-1.21623047.73283203-1.21623047.73283203-2.45703125 1.48046875-8.80892704 4.29734495-19.15073914 4.71080748-28.67578125 2.71484375-7.74987992-2.74525527-14.6747431-8.15465392-18.4921875-15.5078125-.5653839-1.2727966-1.08275739-2.56751495-1.5625-3.875-.35320313-.93328125-.70640625-1.8665625-1.0703125-2.828125-2.65638492-9.06296031-1.48224966-18.04572183 2.52734375-26.48046875 5.05864252-8.82380936 11.53085632-13.30924849 20.85546875-17.00390625 11.3529656-2.1166546 21.32831147-.52252725 31 5.9375z" fill="#efeeec"/><path d="M498 479h19c3.43145031 7.26377099 6.05953148 14.71579051 8.57421875 22.33154297.68203868 2.06237853 1.37378364 4.1213307 2.06640625 6.18017578.43807817 1.31621396.8755989 2.63261361 1.3125 3.94921875.39348633 1.18384277.78697266 2.36768555 1.19238281 3.58740234C531 518 531 518 531 521h2c.21398437-1.14339844.42796875-2.28679688.6484375-3.46484375 1.67842978-7.55293402 4.42347042-14.80621201 6.9765625-22.09765625.52129022-1.50049239 1.04212738-3.00114226 1.5625-4.50195312C543.45228699 487.28820731 544.72630962 483.64428804 546 480h20c-1.12494616 6.74967695-1.12494616 6.74967695-2.3918457 9.95288086-.28195221.72142181-.56390442 1.44284363-.85440064 2.18612671-.30674652.76752594-.61349304 1.53505188-.92953491 2.32583618-.32140961.81828278-.64281921 1.63656555-.97396851 2.47964478-1.04870294 2.66656179-2.1055086 5.32982487-3.16275024 7.99301147-1.09465644 2.77274235-2.18764055 5.54613965-3.28041077 8.31962585-.73624346 1.86836287-1.47317429 3.73645502-2.21078491 5.60427857-2.2895055 5.8051458-4.539184 11.62374803-6.75099182 17.45890808-.53861052 1.41546312-1.07726479 2.83090959-1.6159668 4.24633789-.75009312 1.97184898-1.49763164 3.94444122-2.23623657 5.92062378C534.677664 564.97876375 534.677664 564.97876375 526 571c-6.65234969 2.74088228-12.89233731 2.13410684-20 2v-15l4.75-.75c4.23590112-.8555563 6.71296507-1.5501574 9.25-5.25 2.75889839-4.59816398 1.97567547-8.9423955 1-14-1.06018364-3.29216736-2.41528504-6.41782272-3.82421875-9.57421875-.57582573-1.32944389-.57582573-1.32944389-1.1632843-2.68574524-1.22198393-2.81428804-2.46053423-5.62090873-3.69999695-8.42753601-.81297582-1.86344108-1.62483417-3.72737009-2.43554688-5.59179688-4.37337528-10.05240003-4.37337528-10.05240003-8.83251953-20.06689453-.28873489-.64935012-.57746978-1.29870025-.87495422-1.96772766-.75423057-1.69617403-1.51773528-3.38821595-2.2820282-5.07987976C497 482 497 482 498 479z" fill="#f0eeec"/><path d="M574 454h55c1 12 1 12 0 17h-37v22h35v16h-35v34h-18v-89z" fill="#f1f0ee"/><path d="M719 479.1875c6.56452417 3.96606668 10.54322165 9.43463654 12.54150391 16.81152344.66632707 4.36128457.60086176 8.67352008.59130859 13.07910156.00095673.96717957.00191345 1.93435913.00289917 2.93084717.00067889 2.03737452-.00115508 4.07475124-.00534058 6.11212158-.00537564 3.13155916-.00003325 6.2629764.00634766 9.39453125-.00066038 1.97916698-.0019407 3.95833388-.00390625 5.9375.00202423.94159973.00404846 1.88319946.00613403 2.85333252l-.009552 2.62030029c-.00079559.76435364-.00159119 1.52870728-.00241089 2.31622315C732 543 732 543 731 544c-2.69654854.07319621-5.36691458.09242537-8.0625.0625-.75861328-.00451172-1.51722656-.00902344-2.29882812-.01367188C718.75908129 544.0370068 716.87953101 544.01907078 715 544c-.0093457-1.10923828-.01869141-2.21847656-.02832031-3.36132812-.04010071-4.14525394-.10591367-8.28978128-.17919922-12.43457032-.02809381-1.78831596-.04936561-3.57675342-.06347656-5.36523437-.02159142-2.58233321-.068321-5.16322338-.11962891-7.74511719-.00122864-.78991333-.00245728-1.57982666-.00372314-2.39367676C714.4608276 507.11686872 713.21560948 502.63319139 710 498c-4.25953552-3.02900304-7.83310575-3.65760472-13-3-2.75329021 1.79562405-4.52627461 3.05254922-6 6-.11205827 1.35238573-.16644088 2.70982518-.18945312 4.06665039-.01671753.83749283-.03343506 1.67498566-.05065918 2.53785706-.01357544.9052391-.02715088 1.81047821-.0411377 2.7431488-.01840942.92703232-.03681885 1.85406464-.05578613 2.80918884-.07886562 3.97762758-.14656611 7.95542777-.21520996 11.9332428-.05159313 2.89844492-.1088881 5.79673795-.16650391 8.69506836-.01357544.90726334-.02715088 1.81452667-.0411377 2.74928284C690.11282369 542.88717631 690.11282369 542.88717631 689 544c-2.84335048.09986975-5.65697163.13877881-8.5.125-.79792969.00386719-1.59585938.00773438-2.41796875.01171875C672.12660767 544.12660767 672.12660767 544.12660767 671 543c-.09925773-1.95824698-.12799414-3.92009897-.12939453-5.88085938l-.009552-3.81213378c.00178978-1.38358597.00384073-2.76717162.00613403-4.15075684-.00067309-1.40865089-.00164315-2.81730166-.00289917-4.22595215-.00147675-2.95578108.00067684-5.91153199.00534058-8.86730957.00569728-3.79673412.00241816-7.59339756-.00357247-11.39012909-.00360623-2.90982347-.00246674-5.81963007.00012779-8.72945404.0006691-1.40029915-.00015855-2.80059982-.00247955-4.20089722-.00252751-1.95388257.00200499-3.90777048.00690079-5.86164855.00079559-1.11395142.00159119-2.22790284.00241089-3.37561036C671 480 671 480 672 479c1.34267413-.08631874 2.68974322-.10706473 4.03515625-.09765625.80888672.00322266 1.61777344.00644531 2.45117187.00976563.85013672.0083789 1.70027344.01675781 2.57617188.02539062.85400391.00451172 1.70800781.00902344 2.58789062.01367188 2.11656601.01182439 4.23309623.02976043 6.34960938.04882812l1 7 2.125-2.3125c7.01293909-6.5555735 16.77235494-8.00101733 25.875-4.5z" fill="#f1efee"/><path d="M337.49609375 453.76171875c.86271011-.00807175 1.72542023-.01614349 2.61427307-.02445984 1.83517943-.01386692 3.67038494-.02457734 5.50559998-.03242493 2.77891989-.01707219 5.55660588-.06091554 8.33520507-.10522461 12.92194967-.11510604 22.46234406.8509114 32.13085938 10.22851563 6.28960012 7.12223558 6.75411286 14.88483161 6.375 24.0546875-.54851447 6.7644967-3.34687644 11.72187663-7.76953125 16.7421875L383 506l-4-2v-2h-2l1-5-2-1c-2.91913373-4.3787006-3.06899329-7.19860888-2.75-12.375.04097595-3.83125119-.08126625-6.21183443-2.5-9.25-3.69567042-3.19171537-6.53173155-3.46602784-11.296875-3.69140625-1.14227051-.05716187-1.14227051-.05716187-2.30761719-.11547852-1.43327636-.06465454-1.43327636-.06465454-2.89550781-.13061523L345 470v28h18v1c-5.92930527 1.05409871-11.98842212 1.5881975-18 1l-2-2-2 2v-2l-2-1-1-2-2.875.0625C332 495 332 495 330 494c.00523682-1.11560303.01047363-2.23120605.01586914-3.38061523.01804861-4.1241781.02956235-8.24835268.0390625-12.3725586.00504054-1.78776638.0118729-3.57552862.02050781-5.36328125.01207785-2.5640566.01779149-5.12805889.0222168-7.69213867.00516129-.80416855.01032257-1.6083371.01564026-2.43687439C330.11349215 460.83598285 330.06201983 458.91754632 330 457l-1-1v86h14c-.01160156-1.36253906-.02320313-2.72507812-.03515625-4.12890625-.00938444-1.81119654-.01848394-3.62239457-.02734375-5.43359375-.00837891-.89525391-.01675781-1.79050781-.02539063-2.71289063C342.89370429 524.70002057 343.13733602 519.95182709 344 515h1v29h-17c-.02255001-11.58688749-.0409145-23.17376052-.05181217-34.76066494-.00522908-5.37967268-.01232718-10.75932964-.02362728-16.13899326-.010828-5.18709023-.0168372-10.37416529-.01943779-15.56126595-.00185441-1.98363865-.00547532-3.96727643-.01085282-5.95090866-.00720926-2.76825855-.00826093-5.53645357-.00779533-8.30471992-.00359528-.82862046-.00719055-1.65724091-.01089478-2.51097107.01477482-8.06347504 2.33231861-6.94654447 9.62051392-7.01075745z" fill="#f1f0ee"/><path d="M490 452v92c-17 0-17 0-18-1-.10051875-2.79452271-.13615894-5.56436355-.12939453-8.359375-.00175232-.87636108-.00350464-1.75272217-.00531006-2.65563965-.00441973-2.91168162-.0014801-5.82330305.00189209-8.73498535-.000673-2.01399752-.001643-4.02799495-.00289917-6.04199219-.00147714-4.22689586.00067809-8.45377064.00534058-12.68066406.00569729-5.43114907.00241837-10.86224874-.00357247-16.293396-.00360518-4.16054662-.00246722-8.32108144.00012779-12.48162841.00066939-2.00317389-.00015956-4.00634883-.00247955-6.00952149-.00252583-2.79450337.00131308-5.58892556.00690079-8.38342285-.00202423-.83640015-.00404846-1.67280029-.00613403-2.5345459C471.90746796 447.27903344 473.75967444 452 490 452z" fill="#ecebe9"/><path d="M641 479h17c.15311922 8.17955228.30189353 16.35914789.4429636 24.53891563.06567532 3.79795642.13327428 7.59585852.20522976 11.39370156.06933659 3.66331821.13367203 7.32669289.19450188 10.99016189.02412458 1.39950515.05006849 2.79898012.07783889 4.19841767.0385096 1.95609488.07002231 3.91232377.10119439 5.86854934.0199855 1.11474701.039971 2.22949402.06056213 3.37802124C659 542 659 542 658 544c-2.64590014.02684679-5.29153096.04676357-7.9375.0625-.75474609.00837891-1.50949219.01675781-2.28710938.02539062C645.85005687 544.09652441 643.92464419 544.05224333 642 544c-1-1-1-1-1.12025452-3.54994202.00222061-1.13473251.00444123-2.26946502.00672913-3.43858337.00007553-1.28125259.00015106-2.56250519.00022888-3.88258362.00510742-1.40884947.01032342-2.81769855.01564026-4.22654724.00186423-1.43346609.00328811-2.86693282.00428772-4.30039978.00382481-3.77954354.01365476-7.55904887.02470398-11.33857727.01021492-3.85405968.01479381-7.70812552.01983643-11.56219482C640.96190855 494.13409512 640.97950503 486.56705777 641 479z" fill="#f2f1ef"/><path d="M782.3125 480c1.24210545.64223765 2.4772869 1.2995149 3.6875 2v2l2 2h-3c.39803561 2.88575819.79009069 3.82189513 3.0625 5.75L790 493l1-1h3l-2 1 1 3c-6.38948864.25056818-6.38948864.25056818-9.3984375-.984375-5.58589181-2.18067848-11.59793062-1.88993709-17.0390625.484375-6.48860043 6.33034188-7.02814273 12.5423249-7.19140625 21.42578125C759 520 759 520 757.47265625 521.91796875 756.74369141 522.45357422 756.74369141 522.45357422 756 523l-1-2h-4v-3h-10c-.51589417-12.19038826.63823812-22.55464046 9-32 9.41812651-7.75708127 20.64888141-11.2125839 32.3125-6z" fill="#f2f0ef"/><path d="M848 481h16v63h-16v-63z" fill="#f1efee"/><path d="M911.9921875 493.66015625c5.43154799 2.69246263 7.59999156 6.702973 9.7578125 12.27734375.92030232 7.59249418-.04343226 13.30698138-3.75 20.0625-3.74969401 3.74969401-6.50647025 4.90206362-11.8125 5.25-4.06056094-.06705513-6.74938674-.9839708-10.1875-3.25-5.69812664-6.01468923-6.51565078-11.70681392-6.37890625-19.765625.7285652-6.21909261 3.61585333-9.63159962 8.12890625-13.734375 4.83567515-2.23185007 9.15078594-2.52699446 14.2421875-.83984375zM435 494c4.94586526 2.29629459 7.30760518 5.31323865 10 10 1.90948276 5.72844829 1.91185715 11.77562505-.625 17.3125-2.62839506 4.50842764-5.54494406 7.83753353-10.703125 9.38671875-4.64434229.77643146-7.92691439.6134078-12.046875-1.76171875-4.34594504-3.15190762-6.92640077-6.8417023-8.625-11.9375-.74744945-6.89859081-.03557364-12.27659211 4-18 5.02357386-6.02828863 10.43552696-6.11181128 18-5z" fill="#020202"/><path d="M778 493c5.29112204 2.74731337 9.09375244 6.28125733 11 12 .95315682 13.72912424.95315682 13.72912424-3 19-3.76612715 3.75583718-6.91940427 5.80371738-12.3125 6.3125-4.4529615-.37736962-6.29174213-1.44497113-9.6875-4.3125-4.94657893-6.5508748-5.79097625-11.95840813-5-20 1.63964947-5.38232761 4.26113705-8.88232701 9-12 3.21639478-1.60819739 6.51144167-1.46861231 10-1z" fill="#010102"/><path d="M345 470l9.1875-.125c.94641357-.01820801 1.89282715-.03641602 2.86791992-.05517578 6.14601497-.04044719 9.97692191.47487203 14.75708008 4.61767578 2.87077207 3.69748174 2.84533273 7.39190737 2.5859375 11.9375-.60681501 3.99784009-1.41077349 5.84577767-4.3984375 8.625-8.15285103 3.75403685-15.99064726 3-25 3v-28z" fill="#010101"/><path d="M654 451c2.8100346 1.79363911 4.50940468 3.01880935 6 6 .5811138 7.08958838.5811138 7.08958838-1.875 10.9375-3.22838568 3.13343316-5.57429709 3.45468693-10.0859375 3.421875C644.61993302 470.7567698 643.06810948 468.63213933 641 466c-1.43304064-2.86608129-1.30644155-4.81300783-1-8 3.64155303-6.43341036 6.59796139-8.06351129 14-7z" fill="#f1f0ee"/><path d="M831 524c2.8100346 1.79363911 4.50940468 3.01880935 6 6 .36206054 4.41713859.51432609 6.94898583-1.4375 10.9375-3.13038657 2.51957943-5.34004902 3.08469375-9.3046875 3.33984375C822.32185816 543.79386147 820.65790841 541.85725154 818 539c-1.43304064-2.86608129-1.30644155-4.81300783-1-8 3.64155303-6.43341036 6.59796139-8.06351129 14-7z" fill="#edecea"/><path d="M861 454c2.5 1.4375 2.5 1.4375 4 4 .81442033 3.82920437 1.06209824 7.33742219-1.10546875 10.73046875-2.78166552 2.66234475-4.71219738 3.26638756-8.51953125 3.33203125-3.76706021-1.18592636-5.27969919-1.71001871-7.375-5.0625-.60981229-3.12960272-.6480271-5.87455954 0-9 3.68178512-4.71728718 7.42709026-4.70767108 13-4z" fill="#f0eeed"/><path d="M675.59765625 478.90234375c1.48831242.00667405 2.97660807.01863442 4.46484375.03515625.75861328.00451172 1.51722656.00902344 2.29882813.01367187C684.24091871 478.9629932 686.12046899 478.98092922 688 479v2h-15v61h14v1h-16c-.02255425-8.1969097-.04091696-16.39379545-.05181217-24.59072781-.00522803-3.80578796-.01232421-7.61155367-.02362728-11.41732883-.01083175-3.6698688-.01683799-7.33971614-.01943779-11.00959969-.00185373-1.40309359-.00547336-2.80618596-.01085282-4.20927047-.00721413-1.95877-.00767803-3.9175614-.00779533-5.87634468-.00222061-1.11696763-.00444122-2.23393525-.00672913-3.38475037.18981863-3.96509223.58871136-3.49754973 4.71791077-3.6096344z" fill="#d7d8d9"/><path d="M788 453h1l1 30 4-1c1.99788438-.34578768 3.99759451-.68143549 6-1l1 2-3 2 1 3c-2.01822917-.09765625-4.03645833-.1953125-6.0546875-.29296875-.64195312.09667969-1.28390625.19335937-1.9453125.29296875l-2 3-4-1 .625-2.375L786 485l-2-2h4v-30z" fill="#dbdbda"/><path d="M499.8576660156 478.8864746094c1.18613892.00785522 1.18613892.00785522 2.39624023.01586914 1.28100586.00483399 1.28100586.00483399 2.58789063.00976563.89783203.0083789 1.79566406.01675781 2.72070312.02539062.90169922.00451172 1.80339844.00902344 2.73242188.01367188 2.23509126.01182588 4.47005249.02830592 6.70507812.04882812 1.125 2.3125 1.125 2.3125 2 5l-2 3-1-5h-15l-1 2h-2c-.5625-1.9375-.5625-1.9375-1-4 1-1 1-1 2.85766602-1.11352539z" fill="#e0e0df"/><path d="M900 478c6.70518586-.19818283 12.65176798-.30844801 19 2-3 2-3 2-4.9375 1.6875L912 481l-2.25-.5625L908 480l-1 4-1.875.375c-2.31620832.49697356-2.31620832.49697356-4.125 2.625h-4l.9375-1.6875c1.12143939-2.44077986 1.57803529-4.68067818 2.0625-7.3125z" fill="#eeecea"/><path d="M887 507l3 1 2 14-4 1c-1.06723961-3.46222615-1.10173486-6.64039266-1.0625-10.25.01353516-1.61648438.01353516-1.61648438.02734375-3.265625.01160156-.81984375.02320313-1.6396875.03515625-2.484375z" fill="#dedddd"/><path d="M427 488c3.66881155.70554068 6.70450534 2.27735506 10 4l-1 3-10-1-1-3 2-3z" fill="#d9d7d6"/><path d="M849 465l2.0625 1.375c3.24185186 1.79336486 6.3578441 2.71253869 9.9375 3.625l-2 2c-4.13830989-.30096799-6.51847024-.67898016-10-3v-4z" fill="#dfdfde"/><path d="M900 478c6.70518586-.19818283 12.65176798-.30844801 19 2-3 2-3 2-4.875 1.6875L912 481c-3.97643642-.85977004-7.97017553-1.44688684-12-2v-1z" fill="#cacbcc"/><path d="M145 497c2.1519437 3.22791555 2.20086443 4.28400809 2 8l-1-3h-2l1-5z" fill="#29a2b6"/></svg>